# xmcd
#
# Track frame offsets:
#	150
#	15754
#	28833
#	41922
#
# Disc length: 792 seconds
#
# Revision: 1
# Processed by: cddbd v1.5.2PL0 Copyright (c) Steve Scherf et al.
# Submitted via: EZCDAudioConverter 1.3.4.1
#
DISCID=26031604
DTITLE=TEXAS HEAT - TEXAS_HEAT_A_VERY_SPECIAL_DAY
DYEAR=2012
DGENRE=Country
TTITLE0=THAT HOT AND BLUE GUITAR
TTITLE1=THE VISIT
TTITLE2=OLD BLACK RECORD
TTITLE3=THAT SEPTEMBER DAY
EXTD=
EXTT0=
EXTT1=
EXTT2=
EXTT3=
PLAYORDER=
